<svg width="13" height="13" viewBox="0 0 13 13" fill="none" xmlns="http://www.w3.org/2000/svg">
<path d="M1 1.00129V4.43839H1.40008M11.9561 5.81323C11.8041 4.60534 11.2556 3.48202 10.3966 2.61932C9.5376 1.75663 8.41666 1.2033 7.20944 1.04607C6.00221 0.88884 4.77694 1.13659 3.72564 1.75048C2.67433 2.36438 1.85642 3.30973 1.40008 4.43839M1.40008 4.43839H4.4371M11.9987 12V8.5629H11.5993M11.5993 8.5629C11.1423 9.6909 10.3242 10.6355 9.27297 11.2489C8.22178 11.8622 6.99686 12.1097 5.79 11.9525C4.58315 11.7953 3.46247 11.2424 2.60343 10.3803C1.74439 9.51813 1.19547 8.39548 1.04262 7.18807M11.5993 8.5629H8.56161" stroke="#0098DB" stroke-width="1.5" stroke-linecap="round" stroke-linejoin="round"/>
</svg>
